<?xml version="1.0" encoding="utf-8"?>
<!-- Generator: Adobe Illustrator 24.2.1, SVG Export Plug-In . SVG Version: 6.00 Build 0)  -->
<svg version="1.1" id="Layer_1" xmlns="http://www.w3.org/2000/svg" xmlns:xlink="http://www.w3.org/1999/xlink" x="0px" y="0px"
	 viewBox="0 0 48 48" style="enable-background:new 0 0 48 48;" xml:space="preserve">
<style type="text/css">
	.st0{fill:#FFFFFF;}
</style>
<path class="st0" d="M40.68,47H7.32C3.83,47,1,44.17,1,40.68V7.32C1,3.83,3.83,1,7.32,1h33.36C44.17,1,47,3.83,47,7.32v33.36
	C47,44.17,44.17,47,40.68,47z"/>
<g>
	<path d="M21.68,2.75c1.68,0.26,3.33,0.64,4.9,1.34c3.03,1.35,5.25,3.55,6.79,6.46c0.62,1.17,1.18,2.37,1.69,3.6
		c1.3,3.12,3.28,5.76,5.59,8.18c0.78,0.81,1.52,1.67,2.24,2.53c1.93,2.31,3.42,4.84,3.73,7.92c0,0.36,0,0.71,0,1.07
		c-0.19,1.34-0.47,2.64-1.22,3.8c-0.49,0.76-1.08,1.41-1.83,1.92c-0.3,0.2-0.6,0.26-0.83-0.07c-0.22-0.31-0.12-0.6,0.17-0.83
		c2.63-2.09,3.05-4.81,2.17-7.85c-0.67-2.34-2.12-4.23-3.69-6.03c-1.3-1.49-2.64-2.95-3.93-4.44c-1.71-1.97-2.79-4.3-3.82-6.66
		c-0.78-1.78-1.58-3.55-2.86-5.04c-2.29-2.67-5.21-4.23-8.67-4.68C16.7,3.27,12.13,5.21,8.07,8.62c-1.59,1.33-2.98,2.84-4.04,4.63
		c-1.05,1.76-1.6,3.63-0.93,5.67c0.54,1.63,1.53,2.85,3.34,3.19c0.37,0.07,0.64,0.27,0.57,0.69c-0.07,0.47-0.45,0.43-0.79,0.39
		c-0.97-0.11-0.92-0.12-0.85,0.87c0.1,1.51-0.15,2.99-0.44,4.47c-0.42,2.05-1.01,4.07-1.32,6.14c-0.35,2.37-0.25,4.7,0.86,6.89
		c0.61,1.21,1.54,2.1,2.79,2.63c0.09,0.04,0.19,0.07,0.27,0.12c0.32,0.17,0.48,0.42,0.32,0.78c-0.16,0.34-0.43,0.35-0.75,0.23
		c-1.33-0.48-2.37-1.35-3.15-2.51c-1.44-2.15-1.82-4.56-1.59-7.09c0.26-2.77,1.17-5.4,1.64-8.13c0.26-1.5,0.44-3.01,0.19-4.54
		C4.13,22.67,4.12,22.29,3.81,22c-2.27-2.04-2.71-5.33-1.28-8.29c1.23-2.55,3.12-4.56,5.28-6.32c2.84-2.32,6.03-3.91,9.68-4.5
		c0.29-0.05,0.58-0.1,0.87-0.14C19.47,2.75,20.58,2.75,21.68,2.75z"/>
	<path d="M18.57,41.18c0.05-0.19,0.12-0.38,0.16-0.57c0.21-0.93,0.74-1.61,1.53-2.17c1.55-1.09,1.29-0.69,0.66-2.32
		c-0.05-0.13-0.12-0.25-0.16-0.38c-0.15-0.49-0.48-0.6-0.96-0.51c-1.37,0.25-2.75,0.33-4.13,0.08c-3.31-0.6-5.84-3.4-6.11-6.76
		c-0.14-1.7-0.37-3.38-0.87-5.01c-0.13-0.43-0.4-1,0.28-1.19c0.65-0.18,0.69,0.45,0.83,0.85c0.53,1.54,0.78,3.15,0.87,4.77
		c0.22,3.76,2.94,6.33,6.7,6.35c0.98,0,1.93-0.13,2.89-0.29c0.59-0.1,1.01,0.1,1.27,0.62c0.28,0.59,0.56,1.18,0.81,1.78
		c0.14,0.35,0.31,0.39,0.62,0.2c1.54-0.9,3.16-1.63,4.89-2.09c0.42-0.11,0.47-0.26,0.14-0.57c-0.95-0.9-1.48-2.03-1.81-3.28
		c-0.12-0.45-0.12-0.83,0.43-0.98c0.56-0.15,0.6,0.28,0.69,0.65c0.35,1.32,0.99,2.45,2.09,3.3c0.33,0.25,0.66,0.42,1.08,0.4
		c0.54-0.03,0.91,0.25,1.1,0.74c0.43,1.08,0.81,2.19,1.1,3.32c0.17,0.67-0.14,1.03-0.95,1.08c-1.05,0.05-2.09,0.15-3.11,0.37
		c-3.29,0.71-6.25,2.09-8.89,4.16c-0.32,0.25-1.53,0.38-1.87,0.18c-0.24-0.14-0.32-0.4-0.36-0.66c-0.27-1.88-0.19-3.67,1.17-5.19
		c0.46-0.52,0.93-1.02,1.48-1.45c0.29-0.23,0.59-0.25,0.84,0.04c0.26,0.29,0.11,0.55-0.12,0.78c-0.42,0.42-0.86,0.82-1.26,1.25
		C18.94,39.37,18.52,40.18,18.57,41.18z"/>
	<path d="M26.01,27.95c-0.23,0-0.28,0-0.34,0c-0.33-0.01-0.6-0.14-0.63-0.49c-0.03-0.37,0.23-0.48,0.56-0.55
		c1.35-0.28,2.03-1.15,1.87-2.42c-0.06-0.49-0.23-0.97-0.74-1.12c-0.53-0.16-0.83,0.25-1.09,0.63c-0.48,0.68-0.71,0.68-1.24,0.02
		c-0.11-0.14-0.25-0.25-0.39-0.36c-0.91-0.77-1.59-1.7-2.06-2.79c-0.14-0.33-0.28-0.72,0.15-0.93c0.45-0.22,0.7,0.09,0.87,0.45
		c0.38,0.79,0.87,1.5,1.49,2.13c0.3,0.31,0.52,0.35,0.9,0.07c0.91-0.68,2.06-0.5,2.73,0.4c1.13,1.5,0.57,4.31-1.6,4.88
		C26.28,27.92,26.06,27.95,26.01,27.95z"/>
	<path d="M19.36,21.66c-1.57-0.09-2.87-0.77-3.98-1.86c-0.26-0.25-0.4-0.59-0.12-0.89c0.32-0.33,0.65-0.16,0.93,0.1
		c1.01,0.92,2.14,1.53,3.55,1.54c0.34,0,0.7,0.08,0.7,0.54c0,0.48-0.34,0.57-0.73,0.57C19.59,21.66,19.47,21.66,19.36,21.66z"/>
	<path d="M13.38,21.93c-1.35,0.05-2.35-0.55-3.11-1.62c-0.12-0.17-0.2-0.39-0.26-0.59c-0.1-0.31-0.09-0.61,0.27-0.74
		c0.35-0.13,0.62,0.02,0.77,0.35c0.42,0.95,1.2,1.36,2.17,1.52c0.34,0.06,0.66-0.09,1-0.08c0.32,0,0.61,0.06,0.66,0.44
		c0.04,0.35-0.18,0.57-0.49,0.64C14.05,21.9,13.71,21.9,13.38,21.93z"/>
	<path d="M9.93,22.26c-1.3-0.01-2.45-1.01-2.62-2.29c-0.04-0.3-0.05-0.62,0.32-0.73c0.41-0.12,0.64,0.11,0.76,0.47
		c0.28,0.9,0.8,1.48,1.83,1.44c0.37-0.02,0.68,0.15,0.66,0.58c-0.02,0.39-0.29,0.53-0.66,0.54C10.13,22.26,10.03,22.26,9.93,22.26z"
		/>
	<path d="M15.99,23.84c0-0.45,0.18-0.77,0.68-0.78c0.56-0.01,1.2,0.86,1.21,1.61c0,0.44-0.21,0.72-0.66,0.75
		C16.63,25.45,15.98,24.6,15.99,23.84z"/>
	<path d="M10.96,24.73c0-0.31,0.04-0.61,0.38-0.73c0.34-0.12,0.63,0.02,0.84,0.29c0.31,0.4,0.5,0.85,0.47,1.37
		c-0.02,0.25-0.11,0.47-0.36,0.57c-0.26,0.11-0.51,0.05-0.72-0.14C11.17,25.73,10.97,25.28,10.96,24.73z"/>
	<path d="M14,30.61c-0.28-0.01-0.49-0.07-0.56-0.32c-0.07-0.28,0.09-0.46,0.35-0.52c0.68-0.17,1.27-0.51,1.82-0.93
		c0.2-0.15,0.44-0.21,0.63,0.03c0.17,0.21,0.07,0.42-0.08,0.59C15.57,30.11,14.79,30.42,14,30.61z"/>
</g>
</svg>
